<?xml version="1.0" standalone="no"?>
<!DOCTYPE svg PUBLIC "-//W3C//DTD SVG 20010904//EN"
 "http://www.w3.org/TR/2001/REC-SVG-20010904/DTD/svg10.dtd">
<svg version="1.0" xmlns="http://www.w3.org/2000/svg"
 width="900.000000pt" height="900.000000pt" viewBox="0 0 900.000000 900.000000"
 preserveAspectRatio="xMidYMid meet">
<metadata>
Created by potrace 1.10, written by Peter Selinger 2001-2011
</metadata>
<g transform="translate(0.000000,900.000000) scale(0.100000,-0.100000)"
fill="#000000" stroke="none">
<path d="M0 4500 l0 -4500 4500 0 4500 0 0 4500 0 4500 -4500 0 -4500 0 0
-4500z m8320 -10 l0 -3830 -3830 0 -3830 0 0 3830 0 3830 3830 0 3830 0 0
-3830z"/>
<path d="M5515 6557 c-17 -12 -38 -26 -47 -32 -9 -5 -110 -73 -225 -150 -114
-77 -212 -142 -218 -145 -5 -3 -43 -27 -83 -55 -40 -27 -83 -56 -95 -63 -12
-7 -339 -226 -727 -485 l-705 -472 -5 -487 c-3 -267 -7 -488 -10 -491 -3 -2
-146 -75 -319 -161 -173 -86 -316 -158 -318 -160 -3 -2 -4 -332 -4 -733 l1
-728 97 0 98 0 5 669 5 668 214 109 c118 60 218 106 222 103 5 -3 9 -354 9
-780 l0 -774 425 2 425 3 0 1099 c0 604 -2 1101 -4 1103 -3 3 -145 -65 -317
-152 -236 -118 -314 -153 -320 -143 -5 7 -9 175 -9 374 0 337 1 362 18 377 10
10 70 50 133 91 63 41 119 79 124 83 6 5 89 60 185 124 257 170 293 195 660
440 184 123 343 228 352 234 9 5 72 47 139 93 68 45 129 80 136 78 11 -4 13
-175 13 -943 0 -516 -4 -944 -9 -951 -6 -10 -84 25 -320 143 -172 87 -314 155
-317 152 -2 -2 -4 -499 -4 -1103 l0 -1099 425 -3 425 -2 0 774 c0 426 4 777 9
780 4 3 104 -43 222 -103 l214 -109 5 -668 5 -669 98 -3 c74 -2 97 0 97 10 0
7 0 336 1 731 0 396 -1 721 -4 723 -2 2 -145 74 -318 160 -173 86 -317 162
-321 168 -4 6 -8 548 -8 1204 0 947 -3 1192 -12 1192 -7 0 -27 -10 -43 -23z
m-1450 -3123 l0 -839 -225 0 -225 0 -2 725 c-2 399 1 730 5 735 10 14 425 223
437 220 7 -1 10 -289 10 -841z m1080 736 c116 -58 213 -109 217 -115 4 -5 7
-336 5 -735 l-2 -725 -225 0 -225 0 -3 830 c-1 457 0 836 3 843 3 8 9 12 13
10 4 -2 102 -50 217 -108z"/>
</g>
</svg>
